<?xml version="1.0" standalone="no"?>
<!DOCTYPE svg PUBLIC "-//W3C//DTD SVG 20010904//EN"
 "http://www.w3.org/TR/2001/REC-SVG-20010904/DTD/svg10.dtd">
<svg version="1.0" xmlns="http://www.w3.org/2000/svg"
 width="128.000000pt" height="128.000000pt" viewBox="0 0 128.000000 128.000000"
 preserveAspectRatio="xMidYMid meet">

<g transform="translate(0.000000,128.000000) scale(0.100000,-0.100000)"
fill="#000000" stroke="none">
<path d="M107 1218 c-35 -27 -37 -63 -37 -561 l0 -493 -30 -11 c-38 -14 -50
-55 -25 -83 17 -19 34 -20 445 -20 318 0 429 3 438 12 30 30 1 98 -41 98 -11
0 -17 8 -17 25 0 22 4 25 40 25 28 0 42 5 50 19 6 12 26 22 52 26 54 9 84 27
108 68 19 30 20 52 20 322 l0 290 35 53 c32 47 39 52 73 52 43 0 62 14 62 45
0 37 -19 45 -110 45 l-86 0 -44 -45 -44 -45 3 -340 3 -340 -31 0 c-20 0 -34 7
-41 20 -8 15 -21 20 -50 20 l-40 0 0 393 0 394 -23 21 c-23 22 -28 22 -358 22
-253 0 -339 -3 -352 -12z m687 -34 c14 -14 16 -75 16 -520 l0 -504 -350 0
-350 0 0 508 c0 382 3 511 12 520 9 9 97 12 334 12 280 0 325 -2 338 -16z
m446 -99 c0 -11 -11 -15 -43 -15 -41 0 -44 -2 -72 -50 -26 -43 -34 -50 -62
-50 -29 0 -33 3 -33 26 0 16 14 43 33 64 31 38 33 38 105 39 58 1 72 -2 72
-14z m-170 -449 l0 -294 -31 -26 c-35 -30 -99 -37 -99 -11 0 9 9 15 24 15 13
0 35 9 50 21 l26 20 0 285 c0 246 2 284 15 284 13 0 15 -39 15 -294z m-170
-331 l0 -65 -30 0 -30 0 0 65 0 65 30 0 30 0 0 -65z m-22 -202 c-3 -17 -31
-18 -418 -18 -387 0 -415 1 -418 18 -3 16 22 17 418 17 396 0 421 -1 418 -17z"/>
<path d="M192 1098 c-17 -17 -17 -429 0 -446 7 -7 42 -12 85 -12 71 0 73 1 79
28 10 47 26 71 59 87 62 29 130 -7 144 -77 l7 -33 71 -3 c106 -4 103 -11 103
232 0 184 -2 204 -18 219 -16 15 -50 17 -268 17 -181 0 -253 -3 -262 -12z
m503 -223 l0 -200 -49 0 c-46 0 -50 2 -57 29 -34 126 -218 125 -260 -1 -11
-33 -12 -34 -62 -31 l-52 3 -3 190 c-1 104 0 195 3 202 3 11 55 13 242 11
l238 -3 0 -200z"/>
</g>
</svg>
