<?xml version="1.0" standalone="no"?>
<!DOCTYPE svg PUBLIC "-//W3C//DTD SVG 20010904//EN"
 "http://www.w3.org/TR/2001/REC-SVG-20010904/DTD/svg10.dtd">
<svg version="1.0" xmlns="http://www.w3.org/2000/svg"
 width="128.000000pt" height="128.000000pt" viewBox="0 0 128.000000 128.000000"
 preserveAspectRatio="xMidYMid meet">

<g transform="translate(0.000000,128.000000) scale(0.100000,-0.100000)"
fill="#000000" stroke="none">
<path d="M645 1181 c-102 -26 -175 -113 -175 -210 0 -56 -24 -56 -142 -3 -53
25 -103 42 -111 39 -12 -4 -12 -18 1 -96 l15 -90 -31 -36 c-18 -19 -38 -48
-47 -65 -12 -24 -22 -29 -57 -32 -54 -4 -68 -28 -68 -120 0 -100 18 -127 86
-128 14 0 33 -18 58 -55 20 -31 54 -68 76 -83 l39 -27 1 -80 c0 -49 5 -86 12
-93 12 -12 114 -17 142 -6 11 4 16 19 16 53 l0 46 135 0 134 0 3 -50 3 -50 75
0 75 0 3 85 c2 46 8 90 14 97 7 9 6 14 -5 19 -30 11 -37 -7 -37 -87 l0 -79
-44 0 -45 0 -3 53 c-3 51 -3 52 -33 49 -16 -2 -79 -3 -140 -3 -60 0 -123 1
-140 3 -30 3 -30 2 -33 -49 l-3 -53 -45 0 -44 0 0 79 0 79 -34 22 c-43 26 -90
79 -116 130 -19 38 -23 40 -66 40 l-45 0 3 87 3 88 46 3 c42 3 48 6 60 35 7
18 31 51 51 73 l39 42 -12 71 c-7 39 -9 74 -6 77 3 4 42 -10 85 -31 62 -29 87
-36 111 -30 23 5 31 3 31 -7 0 -7 11 -29 24 -48 20 -30 21 -36 8 -46 -37 -27
-1 -34 178 -34 180 0 215 7 176 35 -14 11 -14 14 -2 24 19 16 42 4 89 -48 58
-65 80 -116 85 -204 3 -51 8 -77 16 -74 6 2 12 15 14 29 3 21 9 26 43 31 22 3
51 13 65 22 33 22 64 73 64 108 0 37 -20 31 -33 -9 -5 -16 -19 -39 -30 -52
-20 -21 -83 -46 -97 -37 -4 3 -10 23 -14 46 -10 62 -43 118 -107 181 l-59 57
11 49 c22 93 -38 210 -126 247 -42 18 -104 25 -140 16z m133 -52 c74 -36 115
-124 98 -212 -3 -18 -22 -52 -42 -75 l-36 -42 -108 0 -108 0 -30 35 c-29 32
-52 89 -52 125 0 34 22 91 47 120 57 69 149 88 231 49z"/>
<path d="M651 1065 c-17 -20 -31 -40 -31 -45 0 -30 23 -59 58 -73 46 -18 55
-28 46 -51 -10 -26 -53 -20 -64 10 -6 14 -16 24 -23 21 -25 -8 -17 -37 18 -73
l37 -36 34 33 c54 53 40 108 -32 128 -33 8 -44 41 -21 60 18 15 44 5 52 -20 8
-25 35 -24 35 2 0 18 -55 79 -71 79 -4 0 -21 -16 -38 -35z"/>
<path d="M265 716 c-29 -29 -31 -43 -9 -74 31 -45 104 -19 104 37 0 53 -57 75
-95 37z m63 -39 c4 -20 -25 -34 -40 -19 -15 15 -1 44 19 40 10 -2 19 -11 21
-21z"/>
<path d="M976 388 c-17 -24 -21 -48 -8 -48 12 0 52 44 52 58 0 20 -28 13 -44
-10z"/>
</g>
</svg>
